<svg xmlns="http://www.w3.org/2000/svg" width="200" height="200" fill="none" viewBox="0 0 59 55" version="1.1" xmlns:xlink="http://www.w3.org/1999/xlink" xmlns:svgjs="http://svgjs.dev/svgjs"><path fill="rgba(255, 255, 255, 1)" d="M29.4 54.8c-2.3 0-4.1-4.7-6.3-5.2-2.3-.5-5.9 2.8-7.9 1.7-2-1.1-1.4-6-3.1-7.5-1.7-1.5-6.5-.4-7.8-2.3-1.2-1.9 1.8-5.8 1.1-8-.6-2.1-5.3-3.8-5.3-6.1s4.7-4 5.3-6.1c.7-2.2-2.4-6.1-1.1-8 1.2-1.9 6.1-.8 7.8-2.3 1.7-1.5 1-6.4 3.1-7.5 2-1 5.7 2.3 7.9 1.7C25.3 4.7 27 0 29.3 0c2.3 0 4.1 4.7 6.3 5.2 2.3.5 5.9-2.8 7.9-1.7 2 1.1 1.4 6 3.1 7.5 1.7 1.5 6.5.4 7.8 2.3 1.2 1.9-1.8 5.8-1.1 8 .6 2.1 5.3 3.8 5.3 6.1s-4.7 4-5.3 6.1c-.7 2.2 2.4 6.1 1.2 8-1.2 1.9-6.1.8-7.8 2.3-1.7 1.5-1 6.4-3.1 7.5-2 1-5.7-2.3-7.9-1.7-2.3.5-4 5.2-6.3 5.2Z"/></svg>